HIERARCHY
ROOT Hips
{
	OFFSET 0.000000 89.005402 0.000000
	CHANNELS 6 Xposition Yposition Zposition Xrotation Yrotation Zrotation
	JOINT Spine
	{
		OFFSET 0.116900 10.681000 0.373400
		CHANNELS 3 Xrotation Yrotation Zrotation
		JOINT Spine1
		{
			OFFSET 0.000000 13.840401 0.053500
			CHANNELS 3 Xrotation Yrotation Zrotation
			JOINT Spine2
			{
				OFFSET 0.000000 14.712700 -0.366200
				CHANNELS 3 Xrotation Yrotation Zrotation
				JOINT Neck
				{
					OFFSET 0.000000 35.415497 -3.314200
					CHANNELS 3 Xrotation Yrotation Zrotation
					JOINT Head
					{
						OFFSET 0.000000 16.899200 1.218300
						CHANNELS 3 Xrotation Yrotation Zrotation
						JOINT HeadTop_End
						{
							OFFSET 0.000000 22.206207 2.192500
							CHANNELS 3 Xrotation Yrotation Zrotation
							End Site
							{
								OFFSET 0.000000 22.314178 0.000000
							}
						}
					}
				}
				JOINT LeftShoulder
				{
					OFFSET 12.896400 26.716293 -4.548400
					CHANNELS 3 Xrotation Yrotation Zrotation
					JOINT LeftArm
					{
						OFFSET 19.027000 -4.857010 -1.718400
						CHANNELS 3 Xrotation Yrotation Zrotation
						JOINT LeftForeArm
						{
							OFFSET 24.179897 0.000000 0.000000
							CHANNELS 3 Xrotation Yrotation Zrotation
							JOINT LeftHand
							{
								OFFSET 27.156403 0.000000 0.000000
								CHANNELS 3 Xrotation Yrotation Zrotation
								JOINT LeftHandIndex1
								{
									OFFSET 16.441200 0.000000 0.000000
									CHANNELS 3 Xrotation Yrotation Zrotation
									JOINT LeftHandIndex2
									{
										OFFSET 4.821899 0.000000 0.000000
										CHANNELS 3 Xrotation Yrotation Zrotation
										JOINT LeftHandIndex3
										{
											OFFSET 6.386497 0.000000 0.000000
											CHANNELS 3 Xrotation Yrotation Zrotation
											JOINT LeftHandIndex4
											{
												OFFSET 5.188988 0.000000 0.000000
												CHANNELS 3 Xrotation Yrotation Zrotation
												End Site
												{
													OFFSET -0.178703 5.185913 0.000177
												}
											}
										}
									}
								}
								JOINT LeftHandThumb1
								{
									OFFSET 6.534897 -5.032593 5.900300
									CHANNELS 3 Xrotation Yrotation Zrotation
									JOINT LeftHandThumb2
									{
										OFFSET 3.818176 -2.204422 2.204423
										CHANNELS 3 Xrotation Yrotation Zrotation
										JOINT LeftHandThumb3
										{
											OFFSET 3.252098 -1.877594 1.877601
											CHANNELS 3 Xrotation Yrotation Zrotation
											JOINT LeftHandThumb4
											{
												OFFSET 5.251778 -3.032120 3.032117
												CHANNELS 3 Xrotation Yrotation Zrotation
												End Site
												{
													OFFSET 0.000023 6.780014 0.000000
												}
											}
										}
									}
								}
							}
						}
					}
				}
				JOINT RightShoulder
				{
					OFFSET -12.896300 26.716293 -4.548400
					CHANNELS 3 Xrotation Yrotation Zrotation
					JOINT RightArm
					{
						OFFSET -19.027000 -4.857010 -1.718400
						CHANNELS 3 Xrotation Yrotation Zrotation
						JOINT RightForeArm
						{
							OFFSET -24.179897 0.000000 0.000000
							CHANNELS 3 Xrotation Yrotation Zrotation
							JOINT RightHand
							{
								OFFSET -27.156403 0.000000 0.000000
								CHANNELS 3 Xrotation Yrotation Zrotation
								JOINT RightHandThumb1
								{
									OFFSET -6.591202 -4.852203 5.988100
									CHANNELS 3 Xrotation Yrotation Zrotation
									JOINT RightHandThumb2
									{
										OFFSET -3.818176 -2.204422 2.204423
										CHANNELS 3 Xrotation Yrotation Zrotation
										JOINT RightHandThumb3
										{
											OFFSET -3.252098 -1.877594 1.877601
											CHANNELS 3 Xrotation Yrotation Zrotation
											JOINT RightHandThumb4
											{
												OFFSET -5.251778 -3.032120 3.032117
												CHANNELS 3 Xrotation Yrotation Zrotation
												End Site
												{
													OFFSET -0.000023 6.780014 0.000000
												}
											}
										}
									}
								}
								JOINT RightHandIndex1
								{
									OFFSET -16.029404 0.000000 0.000000
									CHANNELS 3 Xrotation Yrotation Zrotation
									JOINT RightHandIndex2
									{
										OFFSET -5.213303 0.000000 0.000000
										CHANNELS 3 Xrotation Yrotation Zrotation
										JOINT RightHandIndex3
										{
											OFFSET -6.386528 0.000000 0.000000
											CHANNELS 3 Xrotation Yrotation Zrotation
											JOINT RightHandIndex4
											{
												OFFSET -5.189026 0.000000 0.000000
												CHANNELS 3 Xrotation Yrotation Zrotation
												End Site
												{
													OFFSET 0.236702 5.183624 0.001972
												}
											}
										}
									}
								}
							}
						}
					}
				}
			}
		}
	}
	JOINT LeftUpLeg
	{
		OFFSET 14.073000 -7.904099 -1.463000
		CHANNELS 3 Xrotation Yrotation Zrotation
		JOINT LeftLeg
		{
			OFFSET -0.109806 -34.073280 4.093200
			CHANNELS 3 Xrotation Yrotation Zrotation
			JOINT LeftFoot
			{
				OFFSET 0.109806 -29.899420 -6.319000
				CHANNELS 3 Xrotation Yrotation Zrotation
				JOINT LeftToeBase
				{
					OFFSET 1.551100 -14.988700 20.535801
					CHANNELS 3 Xrotation Yrotation Zrotation
					JOINT LeftToe_End
					{
						OFFSET 0.221200 0.570800 13.248301
						CHANNELS 3 Xrotation Yrotation Zrotation
						End Site
						{
							OFFSET 0.000000 13.262435 0.000000
						}
					}
				}
			}
		}
	}
	JOINT RightUpLeg
	{
		OFFSET -13.839300 -7.904099 -1.463000
		CHANNELS 3 Xrotation Yrotation Zrotation
		JOINT RightLeg
		{
			OFFSET 0.109694 -34.073219 4.093300
			CHANNELS 3 Xrotation Yrotation Zrotation
			JOINT RightFoot
			{
				OFFSET -0.109694 -29.899384 -6.319200
				CHANNELS 3 Xrotation Yrotation Zrotation
				JOINT RightToeBase
				{
					OFFSET -1.551100 -14.988700 20.535801
					CHANNELS 3 Xrotation Yrotation Zrotation
					JOINT RightToe_End
					{
						OFFSET -0.221200 0.570900 13.248299
						CHANNELS 3 Xrotation Yrotation Zrotation
						End Site
						{
							OFFSET 0.000000 13.262440 0.000000
						}
					}
				}
			}
		}
	}
}
MOTION
Frames: 4
Frame Time: 0.033333
-0.257861 95.165016 1.469711 -23.851900 0.752732 -2.653916 -0.810679 -0.929788 -3.987507 -0.210766 -2.162123 -6.691974 -0.276215 -2.314144 -6.639380 -14.988119 -1.952970 -1.259877 -18.013799 -11.182014 -4.264137 -0.000001 0.000001 0.000000 0.765664 -4.875791 27.914689 -83.034528 -10.234386 -109.627500 -0.000751 -77.049240 -0.000736 -84.884669 19.897681 15.915154 2.286478 5.127948 -48.040026 1.536321 4.340280 -38.969941 0.394668 2.301842 -19.455862 0.000002 -0.000001 -0.000002 17.143715 -3.409681 2.432917 30.492147 30.778687 -18.488921 10.439683 14.829994 -4.629842 -0.000002 0.000000 -0.000000 0.395798 2.475962 0.081799 -30.811800 0.170490 38.769667 0.000597 94.372382 -0.000643 -31.248310 -22.083817 2.473442 8.957682 10.653571 -6.673426 -2.288766 -12.976314 4.255893 -4.750123 -1.984402 0.651490 -0.000000 0.000001 -0.000004 0.556310 2.729888 -23.032764 1.367522 -4.145848 36.497457 0.350103 -2.182596 18.223973 0.000001 0.000001 0.000001 -7.994828 21.879789 17.930725 55.815473 0.519777 -7.714464 2.766286 0.077116 2.909803 0.000006 0.000007 -0.000002 -0.000001 0.000001 0.000001 3.430594 -11.077929 -13.335390 38.296898 0.385257 -3.426004 3.517404 -0.119648 3.188190 -0.000006 0.000003 0.000002 -0.000001 0.000000 0.000000 
-0.551723 95.098953 2.496838 -23.298747 1.191778 -2.302211 -0.765305 -0.885036 -4.269467 -0.361852 -2.233090 -6.924465 -0.435032 -2.364521 -6.878726 -15.956000 -1.991185 -0.423363 -18.172852 -10.014837 -4.743581 0.000000 0.000000 -0.000001 0.636588 -4.509302 29.966984 -82.750467 -8.380549 -110.261629 -0.000177 -77.807138 -0.000164 -86.020823 20.554230 13.096903 2.042571 4.898534 -45.249296 1.299861 4.031253 -35.731042 0.332459 2.117655 -17.842640 0.000001 0.000000 0.000000 17.304127 -3.708008 2.468807 29.672770 32.717610 -16.663097 10.027850 15.567492 -3.667499 -0.000001 -0.000000 -0.000001 0.340137 2.307781 -4.354986 -41.410344 4.452977 39.519201 0.000583 82.939943 -0.000617 -57.283553 -17.441351 -5.759266 6.507214 11.246609 -6.480906 0.311844 -1.705040 7.376248 -5.750898 8.670357 4.142350 0.000001 -0.000002 -0.000000 0.378181 2.266042 -18.947464 0.389923 -2.299936 19.242289 0.098124 -1.166377 9.617226 -0.000000 0.000003 0.000000 -6.804088 22.039550 17.551897 52.364591 1.607503 -7.383004 2.495535 0.073656 2.529747 0.000010 0.000007 -0.000002 0.000000 0.000001 0.000001 4.035073 -10.372349 -11.423167 33.825532 -0.947673 -3.173918 2.973026 -0.169771 3.719276 -0.000004 0.000002 0.000001 0.000001 -0.000000 -0.000002 
-1.221661 95.119354 4.159672 -22.532926 -0.100369 -2.578658 -0.744475 -0.459796 -4.417383 -0.722865 -1.457267 -6.725658 -0.786951 -1.544400 -6.699777 -17.559744 -2.045618 0.321089 -17.933264 -9.111460 -5.033827 0.000001 -0.000001 -0.000000 0.536698 -3.872180 33.073241 -84.168674 -6.277180 -113.049446 0.000165 -79.379776 0.000161 -88.099755 16.045602 13.884863 2.157436 5.009364 -46.579394 0.887117 3.385813 -29.356515 0.225207 1.749979 -14.665156 -0.000002 -0.000000 0.000000 17.422858 -3.727075 2.420784 31.456043 35.687612 -17.200629 10.507057 17.163780 -3.579530 -0.000000 0.000000 0.000000 0.270647 2.105073 -10.585211 -56.220715 11.404755 39.934016 0.000018 61.307307 -0.000024 -70.168965 -16.222799 -9.872337 2.132332 10.876081 -5.444825 -1.142985 -2.354220 7.273597 -7.994794 11.230248 5.528939 0.000000 -0.000000 -0.000000 0.793180 3.230061 -27.586427 0.751051 -3.148257 26.829188 0.190170 -1.618249 13.404274 -0.000000 -0.000003 0.000000 -6.707230 22.263362 17.816431 47.976417 1.647907 -6.737709 3.039679 0.107374 1.854454 0.000007 0.000006 -0.000003 -0.000001 0.000001 -0.000000 4.840056 -9.013658 -8.535876 26.735063 -3.383419 -3.141366 2.338981 -0.293266 4.915138 -0.000006 0.000004 0.000001 -0.000000 0.000000 0.000000 
-2.699622 95.320152 5.968775 -21.144951 -3.551262 -3.542629 -0.487739 0.887069 -5.789767 -1.376643 1.014083 -6.512137 -1.453117 1.030391 -6.474066 -18.538778 -2.662653 1.981671 -18.368822 -9.088874 -6.272870 0.000000 0.000001 0.000001 1.248571 -5.157863 38.290102 -87.912287 -3.161325 -115.817633 0.000524 -80.396613 0.000502 -88.321654 10.828555 12.114403 2.046785 4.902704 -45.298672 0.531516 2.657303 -22.618175 0.134087 1.354964 -11.302902 0.000000 -0.000000 -0.000000 17.642003 -3.640942 2.312693 32.191658 39.006845 -16.516733 10.584079 18.753905 -2.931110 -0.000002 -0.000001 -0.000001 0.652662 3.449032 -17.512672 -68.045958 25.681812 30.629358 0.000006 22.210085 -0.000004 -84.733380 -9.630935 -10.925968 -1.348694 9.689004 -4.686206 -4.568378 -3.206662 4.109620 -8.804647 9.243762 3.401316 0.000001 -0.000001 0.000000 0.597077 2.823729 -23.874235 0.738771 -3.123941 26.605238 0.187038 -1.605023 13.292535 -0.000000 -0.000002 -0.000000 -7.470226 22.579946 17.765401 39.936089 1.673194 -5.023034 3.831600 0.110946 1.076256 0.000008 0.000003 -0.000004 -0.000001 0.000002 -0.000000 5.193422 -5.664457 -4.295831 17.150414 -7.469570 -4.592598 1.065010 -1.894603 6.917981 -0.000006 0.000004 0.000001 -0.000000 0.000001 -0.000000 
